# xmcd
# 
# Track frame offsets:
#     150
#     1749
#     8176
#     10175
#     17142
#     18439
#     26972
#     28431
#     38071
#     40637
#     48360
#     49873
#     57191
#     58515
#     69883
#     71342
#     78768
#     79687
#     88490
#     91083
#     100291
#     100805
#     109608
#     111094
#     120140
#     121524
#     129193
#     130220
#     139752
#     140806
#     151688
#     152445
#     158413
#     159521
#     167838
#     170539
# 
# Disc length: 2417
# 
# Revision: 1
# Processed by: cddbd v1.5.2PL0 Copyright (c) Steve Scherf et al.
# Submitted via: BonkEnc v1.0.8
# 
DISCID=b2096f24
DTITLE=The Wiggles - Top Of The Tots
DYEAR=2003
DGENRE=Children's
TTITLE0=Bow Wow Wow Intro
TTITLE1=Bow Wow Wow
TTITLE2=Central Park New York Intro
TTITLE3=Central Park New York
TTITLE4=Cowboys And Cowgirls Intro
TTITLE5=Cowboys And Cowgirls
TTITLE6=Fly Through The Sky Intro
TTITLE7=Fly Through The Sky
TTITLE8=I Wave My Arms And Swing My Baton Intro
TTITLE9=I Wave My Arms And Swing My Baton
TTITLE10=New York Firefighter Intro
TTITLE11=New York Firefighter
TTITLE12=Picking Flowers Intro
TTITLE13=Picking Flowers
TTITLE14=Say Aah At The Doctors Intro
TTITLE15=Say Aah At The Doctors
TTITLE16=Feeling Chirpy Intro
TTITLE17=Feeling Chirpy
TTITLE18=Lettuce Sing Intro
TTITLE19=Lettuce Sing (Fresh Fruit And Veggies)
TTITLE20=Let's Go Swimming Intro
TTITLE21=Let's Go Swimming
TTITLE22=The Bricklayer's Song Intro
TTITLE23=The Bricklayer's Song
TTITLE24=Tick Tock (All Night Long) Intro
TTITLE25=Tick Tock (All Night Long)
TTITLE26=Can You Dig It Intro
TTITLE27=Can You Dig It
TTITLE28=Knead Some Dough Intro
TTITLE29=Knead Some Dough
TTITLE30=Open Wide Intro
TTITLE31=Open Wide Look Inside At The Dentist
TTITLE32=Hey There Partner Intro
TTITLE33=Hey There Partner
TTITLE34=Walking On The Moon Intro
TTITLE35=Walking On The Moon
EXTD=
EXTT0=
EXTT1=
EXTT2=
EXTT3=
EXTT4=
EXTT5=
EXTT6=
EXTT7=
EXTT8=
EXTT9=
EXTT10=
EXTT11=
EXTT12=
EXTT13=
EXTT14=
EXTT15=
EXTT16=
EXTT17=
EXTT18=
EXTT19=
EXTT20=
EXTT21=
EXTT22=
EXTT23=
EXTT24=
EXTT25=
EXTT26=
EXTT27=
EXTT28=
EXTT29=
EXTT30=
EXTT31=
EXTT32=
EXTT33=
EXTT34=
EXTT35=
PLAYORDER=
